#!OML:ASF H:\Male1\Project 1\Capture day 1\Session 1\Male1.ASF
:FULLY-SPECIFIED
:DEGREES
220
root 13.1345 14.6995 1.33161 -170.858 -94.5648 169.17
lowerback 6.40612 0.7007 1.14605
upperback 5.47728 0.820169 0.353188
thorax 2.06868 0.371961 -0.317661
lowerneck -7.77991 2.06099 8.82868
upperneck 3.37085 2.38745 -10.129
head 2.50059 0.962054 -4.40884
rclavicle 4.44781e-015 -2.43511e-015
rhumerus -35.4479 38.2932 -84.6897
rradius 79.0263
rwrist -26.358
rhand -19.3124 6.7919
rfingers 7.12502
rthumb 7.00362 -23.0722
lclavicle 4.44781e-015 -2.43511e-015
lhumerus -32.9897 -2.99716 84.651
lradius 34.9864
lwrist 2.06289
lhand -18.9596 10.2163
lfingers 7.12502
lthumb 7.34412 40.0689
rfemur -23.7729 1.86803 26.8611
rtibia 46.164
rfoot -37.2092 -25.8614
rtoes -6.87068
lfemur -5.50477 -11.6728 -27.7125
ltibia 40.7279
lfoot -35.8061 21.5587
ltoes -3.05225
221
root 13.1904 14.7074 1.33602 -181.267 -94.5406 179.825
lowerback 6.59258 0.706835 0.0218649
upperback 5.49109 0.78252 -0.0210274
thorax 1.96692 0.325118 -0.0731906
lowerneck -7.71402 2.06795 8.82616
upperneck 2.89203 2.35243 -9.71851
head 2.33815 0.962799 -4.28222
rclavicle 1.2657e-016 4.17137e-015
rhumerus -35.4744 38.2528 -85.1684
rradius 79.2273
rwrist -26.0936
rhand -19.7316 6.75698
rfingers 7.12502
rthumb 6.59893 -23.1202
lclavicle 1.2657e-016 4.17137e-015
lhumerus -32.6659 -2.82248 84.3693
lradius 33.7776
lwrist 1.11761
lhand -18.4794 10.4394
lfingers 7.12502
lthumb 7.80766 40.2753
rfemur -24.9064 0.63478 25.8958
rtibia 47.1069
rfoot -36.0725 -25.6074
rtoes -8.99241
lfemur -5.74419 -11.2265 -28.3349
ltibia 40.064
lfoot -35.0263 21.1409
ltoes -3.97621
222
root 13.2457 14.7123 1.33829 -184.913 -94.4187 183.559
lowerback 6.95002 0.797136 -0.454954
upperback 5.51266 0.875578 -0.298166
thorax 1.78865 0.360335 -0.0997959
lowerneck -7.78933 2.00534 8.80981
upperneck 2.69247 2.23029 -9.22492
head 2.27216 0.917357 -4.13199
rclavicle 1.81639e-014 -3.926e-015
rhumerus -35.5317 38.1488 -85.6358
rradius 79.4947
rwrist -26.0836
rhand -19.8494 6.60868
rfingers 7.12502
rthumb 6.48518 -23.272
lclavicle 1.81639e-014 -3.926e-015
lhumerus -32.391 -3.02934 84.0913
lradius 32.6964
lwrist 0.45753
lhand -17.9838 10.71
lfingers 7.12502
lthumb 8.286 40.5275
rfemur -25.9328 -0.435275 25.6054
rtibia 48.1301
rfoot -34.9624 -25.2448
rtoes -10.6185
lfemur -5.95371 -10.194 -28.2577
ltibia 39.5534
lfoot -34.3137 20.45
ltoes -4.79366
223
root 13.2952 14.7172 1.3483 -186.62 -94.2007 185.222
lowerback 7.35124 0.894172 -0.606777
upperback 5.58912 0.985803 -0.525887
thorax 1.64795 0.411406 -0.259911
lowerneck -7.9915 1.94819 8.67248
upperneck 2.63718 2.12449 -8.69216
head 2.26993 0.876203 -3.94891
rclavicle -3.28492e-014 1.64991e-014
rhumerus -35.5538 38.261 -85.9414
rradius 79.9347
rwrist -26.2071
rhand -19.9372 6.43634
rfingers 7.12502
rthumb 6.40045 -23.447
lclavicle -3.28492e-014 1.64991e-014
lhumerus -32.1995 -3.29629 83.8837
lradius 31.8058
lwrist -0.17534
lhand -17.7255 10.6802
lfingers 7.12502
lthumb 8.53522 40.4877
rfemur -26.8101 -1.42148 25.4994
rtibia 49.2632
rfoot -34.0888 -24.7582
rtoes -12.9019
lfemur -5.9662 -9.47751 -28.2089
ltibia 39.0995
lfoot -33.8989 20.1767
ltoes -5.26272
224
root 13.3364 14.725 1.36745 -191.241 -94.1016 189.722
lowerback 7.74917 0.931625 -0.8751
upperback 5.70313 1.00603 -0.754034
thorax 1.54675 0.412971 -0.350588
lowerneck -8.02196 1.81165 8.19534
upperneck 2.49191 1.94554 -7.94647
head 2.20173 0.805181 -3.64911
rclavicle 3.8266e-015 -9.54166e-015
rhumerus -35.5867 38.6634 -86.1398
rradius 80.4694
rwrist -26.3321
rhand -20.1066 6.63006
rfingers 7.12502
rthumb 6.23692 -23.2581
lclavicle 3.8266e-015 -9.54166e-015
lhumerus -32.0809 -3.41179 83.7643
lradius 31.0329
lwrist -0.754376
lhand -17.7099 10.0957
lfingers 7.12502
lthumb 8.55033 39.9026
rfemur -27.5978 -2.54214 25.1444
rtibia 50.585
rfoot -33.4488 -24.3298
rtoes -16.5457
lfemur -5.72842 -9.40219 -28.6422
ltibia 38.6324
lfoot -33.9494 20.0731
ltoes -4.03217
225
root 13.3752 14.7327 1.38675 -196.421 -93.9695 194.826
lowerback 8.15066 0.965478 -1.14863
upperback 5.75942 1.0192 -0.993384
thorax 1.38429 0.412123 -0.450203
lowerneck -7.88611 1.86294 8.21594
upperneck 1.91434 1.97801 -7.40676
head 2.23135 0.852296 -3.8725
rclavicle 3.8763e-015 -6.95746e-015
rhumerus -35.7708 39.1458 -86.4581
rradius 81.1053
rwrist -26.3344
rhand -20.2158 6.90234
rfingers 7.12502
rthumb 6.13151 -22.9889
lclavicle 3.8763e-015 -6.95746e-015
lhumerus -32.0877 -3.50063 83.6304
lradius 30.4035
lwrist -1.21106
lhand -17.9381 9.69372
lfingers 7.12502
lthumb 8.33009 39.5095
rfemur -28.5345 -3.53727 24.8193
rtibia 52.1583
rfoot -32.5779 -23.9369
rtoes -19.5276
lfemur -5.44949 -9.69807 -29.197
ltibia 38.1269
lfoot -34.1536 20.1743
ltoes -2.30879
226
root 13.4065 14.7414 1.40398 -203.467 -93.4814 201.86
lowerback 8.42921 1.11844 -1.42777
upperback 5.77244 1.19071 -1.23948
thorax 1.24488 0.491417 -0.563815
lowerneck -7.71033 1.94539 8.33564
upperneck 1.47318 2.06287 -7.19904
head 2.05581 0.901164 -3.81233
rclavicle -8.74653e-015 8.54774e-015
rhumerus -36.0145 39.578 -86.8362
rradius 81.7772
rwrist -26.1393
rhand -20.241 6.95953
rfingers 7.12502
rthumb 6.10712 -22.9324
lclavicle -8.74653e-015 8.54774e-015
lhumerus -32.2871 -3.50015 83.4212
lradius 30.0091
lwrist -1.54695
lhand -18.1251 9.42566
lfingers 7.12502
lthumb 8.14958 39.2485
rfemur -29.6513 -4.09069 24.6349
rtibia 53.9876
rfoot -31.1653 -23.4843
rtoes -21.7942
lfemur -5.20051 -9.90373 -29.7274
ltibia 37.5988
lfoot -34.2285 20.6874
ltoes -1.44083
227
root 13.4312 14.755 1.41867 -211.288 -93.0234 209.767
lowerback 8.51862 1.24056 -1.70733
upperback 5.81235 1.32573 -1.40573
thorax 1.23543 0.550952 -0.58984
lowerneck -7.61034 1.94794 8.08228
upperneck 1.20745 2.06949 -6.73534
head 1.93315 0.913526 -3.59425
rclavicle 3.8763e-015 -2.14687e-014
rhumerus -36.0582 40.1336 -87.051
rradius 82.3276
rwrist -25.848
rhand -20.146 6.9808
rfingers 7.12502
rthumb 6.19889 -22.9085
lclavicle 3.8763e-015 -2.14687e-014
lhumerus -32.5164 -3.18597 83.1742
lradius 29.7501
lwrist -1.84774
lhand -18.3336 9.01972
lfingers 7.12502
lthumb 7.94834 38.8503
rfemur -30.9034 -4.49074 24.6135
rtibia 56.0017
rfoot -29.912 -23.018
rtoes -23.1409
lfemur -5.09435 -10.0484 -30.1209
ltibia 37.1178
lfoot -34.1153 21.3199
ltoes -1.10085
228
root 13.4514 14.7705 1.43226 -218.939 -92.5693 217.491
lowerback 8.61004 1.3534 -1.83525
upperback 5.87576 1.45755 -1.54411
thorax 1.25188 0.612044 -0.672021
lowerneck -7.69551 1.96705 7.9917
upperneck 1.0558 2.07733 -6.35601
head 1.88846 0.923068 -3.44129
rclavicle -1.98785e-016 1.23246e-014
rhumerus -36.0429 40.6506 -87.2852
rradius 82.8072
rwrist -25.6625
rhand -20.263 7.01239
rfingers 7.12502
rthumb 6.08587 -22.8802
lclavicle -1.98785e-016 1.23246e-014
lhumerus -32.7019 -2.75714 82.8517
lradius 29.476
lwrist -2.15136
lhand -18.5599 8.74407
lfingers 7.12502
lthumb 7.72993 38.5828
rfemur -32.1617 -4.85555 24.816
rtibia 58.1093
rfoot -28.8936 -22.7769
rtoes -24.1423
lfemur -5.00847 -10.1422 -30.328
ltibia 36.6988
lfoot -34.1725 21.7416
ltoes -0.0479036
229
root 13.4701 14.7845 1.43954 -229.577 -92.0028 228.04
lowerback 8.93261 1.52203 -1.94205
upperback 5.91976 1.6545 -1.62898
thorax 1.12055 0.705493 -0.72176
lowerneck -7.77108 1.97245 8.06056
upperneck 1.00304 2.05931 -6.04285
head 1.87761 0.920344 -3.34537
rclavicle 2.21645e-014 1.98785e-015
rhumerus -36.1712 41.028 -87.66
rradius 83.279
rwrist -25.4417
rhand -20.8486 7.2628
rfingers 7.12502
rthumb 5.52049 -22.6453
lclavicle 2.21645e-014 1.98785e-015
lhumerus -32.9786 -2.24322 82.4721
lradius 29.1968
lwrist -2.42729
lhand -18.7456 8.58878
lfingers 7.12502
lthumb 7.55068 38.434
rfemur -33.2601 -5.05016 25.2245
rtibia 60.2489
rfoot -27.9251 -22.5943
rtoes -24.7465
lfemur -4.75439 -9.99688 -30.3384
ltibia 36.3053
lfoot -34.394 21.8847
ltoes 1.43941
230
root 13.4824 14.8013 1.44417 -238.701 -91.5971 237.171
lowerback 9.16018 1.57688 -2.05605
upperback 5.89867 1.70724 -1.61669
thorax 0.97043 0.727974 -0.655353
lowerneck -7.69562 1.99941 7.90808
upperneck 0.867809 2.0959 -5.60782
head 1.80882 0.947411 -3.16134
rclavicle -5.76476e-015 1.39149e-014
rhumerus -36.4048 41.5014 -88.0043
rradius 83.785
rwrist -25.2251
rhand -21.1152 7.71282
rfingers 7.12502
rthumb 5.26309 -22.2018
lclavicle -5.76476e-015 1.39149e-014
lhumerus -33.3905 -1.40911 82.0944
lradius 28.9198
lwrist -2.69807
lhand -19.1924 7.93782
lfingers 7.12502
lthumb 7.11947 37.7981
rfemur -34.4525 -5.31774 25.6982
rtibia 62.3761
rfoot -27.103 -22.2599
rtoes -24.3727
lfemur -4.58603 -10.0328 -30.259
ltibia 35.8875
lfoot -34.4379 22.2014
ltoes 1.8537
231
root 13.4849 14.8215 1.45154 -243.237 -91.4997 241.759
lowerback 9.33842 1.50952 -2.14777
upperback 5.85261 1.60197 -1.67617
thorax 0.824763 0.674253 -0.661437
lowerneck -7.63208 1.9337 7.72435
upperneck 0.876625 2.01432 -5.13108
head 1.77994 0.917731 -2.96469
rclavicle -3.28989e-014 1.74931e-014
rhumerus -36.6582 41.992 -88.3724
rradius 84.3592
rwrist -25.1271
rhand -21.0768 8.09641
rfingers 7.12502
rthumb 5.30017 -21.8173
lclavicle -3.28989e-014 1.74931e-014
lhumerus -33.8225 -0.624028 81.693
lradius 28.5975
lwrist -2.82753
lhand -19.9907 6.94502
lfingers 7.12502
lthumb 6.34879 36.8299
rfemur -35.6749 -5.85292 26.0006
rtibia 64.464
rfoot -26.3557 -22.0582
rtoes -24.5153
lfemur -4.3858 -10.2016 -30.309
ltibia 35.3819
lfoot -34.3225 22.5883
ltoes 1.72039
232
root 13.4738 14.8419 1.46338 -250.954 -91.5506 249.493
lowerback 9.41856 1.43473 -2.25837
upperback 5.8427 1.48723 -1.81342
thorax 0.772313 0.615108 -0.733366
lowerneck -7.47338 1.86271 7.61526
upperneck 0.733648 1.92415 -4.72144
head 1.68691 0.881296 -2.80588
rclavicle 1.2921e-014 -4.77083e-015
rhumerus -36.871 42.4207 -88.7568
rradius 84.9448
rwrist -24.9901
rhand -21.2978 8.3728
rfingers 7.12502
rthumb 5.08682 -21.5461
lclavicle 1.2921e-014 -4.77083e-015
lhumerus -34.1975 0.0228971 81.313
lradius 28.266
lwrist -2.88406
lhand -20.8428 6.31865
lfingers 7.12502
lthumb 5.52616 36.2266
rfemur -36.8036 -6.42981 26.0866
rtibia 66.4458
rfoot -25.6105 -21.8891
rtoes -25.2445
lfemur -4.01743 -10.3099 -30.567
ltibia 34.778
lfoot -34.3013 22.936
ltoes 2.14107
233
root 13.4522 14.8571 1.46901 -262.852 -91.8142 261.352
lowerback 9.41107 1.39968 -2.75305
upperback 5.88631 1.39759 -1.91979
thorax 0.814156 0.555745 -0.558205
lowerneck -7.39605 1.82837 7.43031
upperneck 0.648385 1.88449 -4.28719
head 1.62997 0.869457 -2.62398
rclavicle 5.1684e-015 3.57812e-015
rhumerus -37.0346 42.8274 -89.0012
rradius 85.6174
rwrist -24.8879
rhand -21.387 8.53828
rfingers 7.12502
rthumb 5.00067 -21.3827
lclavicle 5.1684e-015 3.57812e-015
lhumerus -34.5109 0.683849 81.0106
lradius 27.9452
lwrist -2.94866
lhand -21.2821 6.01922
lfingers 7.12502
lthumb 5.10195 35.9378
rfemur -37.785 -6.96998 25.9446
rtibia 68.2232
rfoot -24.8532 -21.6475
rtoes -26.3044
lfemur -3.5307 -9.98598 -30.9722
ltibia 34.1186
lfoot -34.1673 23.0468
ltoes 2.27912
234
root 13.4272 14.8681 1.47113 -267.02 -92.2081 265.415
lowerback 9.56577 1.30479 -3.3699
upperback 5.89587 1.21016 -2.00457
thorax 0.732584 0.445179 -0.287361
lowerneck -7.46113 1.83356 7.10274
upperneck 0.798563 1.89541 -3.58547
head 1.67145 0.889964 -2.32655
rclavicle 2.68359e-015 9.54166e-015
rhumerus -37.3356 43.1776 -89.2274
rradius 86.4677
rwrist -24.8912
rhand -21.4566 8.79013
rfingers 7.12502
rthumb 4.93351 -21.1324
lclavicle 2.68359e-015 9.54166e-015
lhumerus -34.8363 1.13643 80.8048
lradius 27.6585
lwrist -2.8657
lhand -21.3025 6.36925
lfingers 7.12502
lthumb 5.08227 36.2883
rfemur -38.6079 -7.74385 25.6941
rtibia 69.7018
rfoot -24.2651 -21.2247
rtoes -27.1083
lfemur -3.01914 -9.54458 -31.4047
ltibia 33.5127
lfoot -33.78 23.0534
ltoes 1.34398
